<svg width="33" height="34" viewBox="0 0 33 34" fill="none" xmlns="http://www.w3.org/2000/svg">
<path d="M0 26.293V29C0 31.3203 5.54297 33.125 12.375 33.125C19.207 33.125 24.75 31.3203 24.75 29V26.293C22.043 28.1621 17.209 29 12.375 29C7.47656 29 2.64258 28.1621 0 26.293ZM20.625 8.375C27.457 8.375 33 6.57031 33 4.25C33 1.99414 27.457 0.125 20.625 0.125C13.793 0.125 8.25 1.99414 8.25 4.25C8.25 6.57031 13.793 8.375 20.625 8.375ZM0 19.5254V22.8125C0 25.1328 5.54297 26.9375 12.375 26.9375C19.207 26.9375 24.75 25.1328 24.75 22.8125V19.5254C22.043 21.7168 17.209 22.8125 12.375 22.8125C7.47656 22.8125 2.64258 21.7168 0 19.5254ZM26.8125 20.2344C30.4863 19.5254 33 18.1719 33 16.625V13.918C31.4531 14.9492 29.2617 15.6582 26.8125 16.1094V20.2344ZM12.375 10.4375C5.54297 10.4375 0 12.7578 0 15.5938C0 18.4941 5.54297 20.75 12.375 20.75C19.207 20.75 24.75 18.4941 24.75 15.5938C24.75 12.7578 19.207 10.4375 12.375 10.4375ZM26.4902 14.1113C30.3574 13.4023 33 12.0488 33 10.4375V7.73047C30.6797 9.3418 26.748 10.1797 22.623 10.4375C24.4922 11.3398 25.9102 12.5645 26.4902 14.1113Z" fill="white"/>
</svg>
