<svg width="33" height="30" viewBox="0 0 33 30" fill="none" xmlns="http://www.w3.org/2000/svg">
<path d="M2.0625 27C2.0625 28.1602 2.96484 29.0625 4.125 29.0625H28.875C29.9707 29.0625 30.9375 28.1602 30.9375 27V8.4375H2.0625V27ZM12.375 13.3359C12.375 12.9492 12.6973 12.5625 13.1484 12.5625H19.8516C20.2383 12.5625 20.625 12.9492 20.625 13.3359V13.8516C20.625 14.3027 20.2383 14.625 19.8516 14.625H13.1484C12.6973 14.625 12.375 14.3027 12.375 13.8516V13.3359ZM30.9375 0.1875H2.0625C0.902344 0.1875 0 1.1543 0 2.25V5.34375C0 5.92383 0.451172 6.375 1.03125 6.375H31.9688C32.4844 6.375 33 5.92383 33 5.34375V2.25C33 1.1543 32.0332 0.1875 30.9375 0.1875Z" fill="white"/>
</svg>
