<svg width="31" height="33" viewBox="0 0 31 33" fill="none" xmlns="http://www.w3.org/2000/svg">
<path d="M30.3887 20.4922L27.6172 18.9453C27.9395 17.3984 27.9395 15.916 27.6172 14.3691L30.3887 12.8223C30.7109 12.6289 30.8398 12.2422 30.7109 11.9199C30.002 9.59961 28.7773 7.53711 27.2305 5.79688C26.9727 5.53906 26.5859 5.47461 26.2637 5.66797L23.4922 7.21484C22.332 6.24805 21.043 5.47461 19.625 4.95898V1.80078C19.625 1.47852 19.3672 1.15625 18.9805 1.0918C16.5957 0.511719 14.2109 0.576172 11.9551 1.0918C11.5684 1.15625 11.375 1.47852 11.375 1.80078V4.95898C9.89258 5.47461 8.60352 6.24805 7.44336 7.2793L4.67188 5.66797C4.34961 5.47461 3.96289 5.53906 3.70508 5.79688C2.1582 7.53711 0.933594 9.59961 0.224609 11.9199C0.0957031 12.2422 0.224609 12.6289 0.546875 12.8223L3.31836 14.3691C3.06055 15.916 3.06055 17.3984 3.31836 18.9453L0.546875 20.4922C0.224609 20.6855 0.0957031 21.0723 0.224609 21.3945C0.933594 23.7148 2.1582 25.7773 3.70508 27.5176C3.96289 27.7754 4.34961 27.8398 4.67188 27.6465L7.44336 26.0996C8.60352 27.0664 9.89258 27.8398 11.375 28.3555V31.5137C11.375 31.8359 11.6328 32.1582 11.9551 32.2871C14.3398 32.8027 16.7246 32.7383 18.9805 32.2871C19.3672 32.1582 19.625 31.8359 19.625 31.5137V28.3555C21.043 27.8398 22.332 27.0664 23.4922 26.0996L26.2637 27.6465C26.5859 27.8398 26.9727 27.7754 27.2305 27.5176C28.8418 25.7773 30.002 23.7148 30.7754 21.3945C30.8398 21.0723 30.7109 20.6855 30.3887 20.4922ZM15.5 21.7812C12.5996 21.7812 10.3438 19.5254 10.3438 16.625C10.3438 13.7891 12.5996 11.4688 15.5 11.4688C18.3359 11.4688 20.6562 13.7891 20.6562 16.625C20.6562 19.5254 18.3359 21.7812 15.5 21.7812Z" fill="white"/>
</svg>
