<svg width="37" height="34" viewBox="0 0 37 34" fill="none" xmlns="http://www.w3.org/2000/svg">
<path d="M34.9668 18.6875H19.6914L29.875 28.9355C30.2617 29.3223 30.9062 29.3223 31.293 28.9355C33.8066 26.6152 35.5469 23.457 35.998 19.8477C36.127 19.2676 35.6113 18.6875 34.9668 18.6875ZM33.9355 14.5625C33.4199 6.82812 27.2969 0.705078 19.5625 0.189453C18.9824 0.125 18.5312 0.640625 18.5312 1.2207V15.5938H32.9043C33.4844 15.5938 34 15.1426 33.9355 14.5625ZM15.4375 18.6875V3.41211C15.4375 2.83203 14.8574 2.31641 14.2773 2.38086C6.54297 3.47656 0.677734 10.1797 1 18.2363C1.25781 26.4863 8.34766 33.2539 16.6621 33.125C19.8848 33.125 22.9141 32.0938 25.3633 30.2891C25.8789 29.9668 25.8789 29.1934 25.4277 28.7422L15.4375 18.6875Z" fill="white"/>
</svg>
