<svg width="42" height="30" viewBox="0 0 42 30" fill="none" xmlns="http://www.w3.org/2000/svg">
<path d="M12.375 14.625C16.3066 14.625 19.5938 11.4023 19.5938 7.40625C19.5938 3.47461 16.3066 0.1875 12.375 0.1875C8.37891 0.1875 5.15625 3.47461 5.15625 7.40625C5.15625 11.4023 8.37891 14.625 12.375 14.625ZM17.2734 16.6875H16.7578C15.4043 17.332 13.9219 17.7188 12.375 17.7188C10.7637 17.7188 9.28125 17.332 7.92773 16.6875H7.41211C3.28711 16.6875 0 20.0391 0 24.1641V25.9688C0 27.709 1.35352 29.0625 3.09375 29.0625H21.6562C23.332 29.0625 24.75 27.709 24.75 25.9688V24.1641C24.75 20.0391 21.3984 16.6875 17.2734 16.6875ZM30.9375 14.625C34.3535 14.625 37.125 11.8535 37.125 8.4375C37.125 5.02148 34.3535 2.25 30.9375 2.25C27.5215 2.25 24.75 5.02148 24.75 8.4375C24.75 11.8535 27.5215 14.625 30.9375 14.625ZM34.0312 16.6875H33.7734C32.8711 17.0098 31.9043 17.2031 30.9375 17.2031C29.9062 17.2031 28.9395 17.0098 28.0371 16.6875H27.8438C26.4902 16.6875 25.2656 17.0742 24.2344 17.7188C25.7812 19.3945 26.8125 21.6504 26.8125 24.1641V26.6133C26.8125 26.7422 26.748 26.8711 26.748 27H38.1562C39.832 27 41.25 25.6465 41.25 23.9062C41.25 19.9746 37.9629 16.6875 34.0312 16.6875Z" fill="white"/>
</svg>
