<svg width="32" height="28" viewBox="0 0 32 28" fill="none" xmlns="http://www.w3.org/2000/svg">
<path d="M29 28C30.625 28 32 26.6875 32 25V3C32 1.375 30.625 0 29 0H3C1.3125 0 0 1.375 0 3V25C0 26.6875 1.3125 28 3 28H29ZM8 5.5C9.375 5.5 10.5 6.625 10.5 8C10.5 9.4375 9.375 10.5 8 10.5C6.5625 10.5 5.5 9.4375 5.5 8C5.5 6.625 6.5625 5.5 8 5.5ZM8 11.5C9.375 11.5 10.5 12.625 10.5 14C10.5 15.4375 9.375 16.5 8 16.5C6.5625 16.5 5.5 15.4375 5.5 14C5.5 12.625 6.5625 11.5 8 11.5ZM8 17.5C9.375 17.5 10.5 18.625 10.5 20C10.5 21.4375 9.375 22.5 8 22.5C6.5625 22.5 5.5 21.4375 5.5 20C5.5 18.625 6.5625 17.5 8 17.5ZM26 9C26 9.4375 25.625 9.75 25.25 9.75H12.75C12.3125 9.75 12 9.4375 12 9V7C12 6.625 12.3125 6.25 12.75 6.25H25.25C25.625 6.25 26 6.625 26 7V9ZM26 15C26 15.4375 25.625 15.75 25.25 15.75H12.75C12.3125 15.75 12 15.4375 12 15V13C12 12.625 12.3125 12.25 12.75 12.25H25.25C25.625 12.25 26 12.625 26 13V15ZM26 21C26 21.4375 25.625 21.75 25.25 21.75H12.75C12.3125 21.75 12 21.4375 12 21V19C12 18.625 12.3125 18.25 12.75 18.25H25.25C25.625 18.25 26 18.625 26 19V21Z" fill="white"/>
</svg>
