<svg width="28" height="32" viewBox="0 0 28 32" fill="none" xmlns="http://www.w3.org/2000/svg">
<path d="M0 29C0 30.6875 1.3125 32 3 32H25C26.625 32 28 30.6875 28 29V12H0V29ZM20 16.75C20 16.375 20.3125 16 20.75 16H23.25C23.625 16 24 16.375 24 16.75V19.25C24 19.6875 23.625 20 23.25 20H20.75C20.3125 20 20 19.6875 20 19.25V16.75ZM20 24.75C20 24.375 20.3125 24 20.75 24H23.25C23.625 24 24 24.375 24 24.75V27.25C24 27.6875 23.625 28 23.25 28H20.75C20.3125 28 20 27.6875 20 27.25V24.75ZM12 16.75C12 16.375 12.3125 16 12.75 16H15.25C15.625 16 16 16.375 16 16.75V19.25C16 19.6875 15.625 20 15.25 20H12.75C12.3125 20 12 19.6875 12 19.25V16.75ZM12 24.75C12 24.375 12.3125 24 12.75 24H15.25C15.625 24 16 24.375 16 24.75V27.25C16 27.6875 15.625 28 15.25 28H12.75C12.3125 28 12 27.6875 12 27.25V24.75ZM4 16.75C4 16.375 4.3125 16 4.75 16H7.25C7.625 16 8 16.375 8 16.75V19.25C8 19.6875 7.625 20 7.25 20H4.75C4.3125 20 4 19.6875 4 19.25V16.75ZM4 24.75C4 24.375 4.3125 24 4.75 24H7.25C7.625 24 8 24.375 8 24.75V27.25C8 27.6875 7.625 28 7.25 28H4.75C4.3125 28 4 27.6875 4 27.25V24.75ZM25 4H22V1C22 0.5 21.5 0 21 0H19C18.4375 0 18 0.5 18 1V4H10V1C10 0.5 9.5 0 9 0H7C6.4375 0 6 0.5 6 1V4H3C1.3125 4 0 5.375 0 7V10H28V7C28 5.375 26.625 4 25 4Z" fill="white"/>
</svg>
